<svg xmlns="http://www.w3.org/2000/svg" xmlns:xlink="http://www.w3.org/1999/xlink" width="32" height="32" viewBox="0 0 32 32"><defs><clipPath id="a"><rect width="32" height="32" transform="translate(1019 2691)" fill="none"/></clipPath></defs><g transform="translate(-1019 -2691)" clip-path="url(#a)"><path d="M28.981,22.361a6.62,6.62,0,0,1-6.62,6.62H9.639a6.62,6.62,0,0,1-6.62-6.62V9.638a6.62,6.62,0,0,1,6.62-6.62H22.361a6.62,6.62,0,0,1,6.62,6.62V22.361ZM32,9.638A9.639,9.639,0,0,0,22.361,0H9.64A9.638,9.638,0,0,0,0,9.64V22.361A9.64,9.64,0,0,0,9.639,32H22.36A9.64,9.64,0,0,0,32,22.36ZM16.054,21.268a5.062,5.062,0,1,1,5.062-5.062,5.062,5.062,0,0,1-5.062,5.062Zm0-12.964a7.9,7.9,0,1,0,7.9,7.9,7.9,7.9,0,0,0-7.9-7.9Zm8.364-2.413A1.881,1.881,0,1,0,26.3,7.772a1.881,1.881,0,0,0-1.882-1.881Z" transform="translate(1019 2691)" fill="#f2efeb"/></g></svg>